<svg xmlns="http://www.w3.org/2000/svg" xmlns:xlink="http://www.w3.org/1999/xlink" width="600" zoomAndPan="magnify" viewBox="0 0 450 179.999997" height="240" preserveAspectRatio="xMidYMid meet" version="1.2"><defs><clipPath id="63b7de6fe3"><path d="M 26 72 L 61 72 L 61 119 L 26 119 Z M 26 72 "/></clipPath><clipPath id="aac0fe5a0b"><path d="M 50.351562 72.855469 L 60.871094 79.199219 L 37.105469 118.578125 L 26.585938 112.234375 Z M 50.351562 72.855469 "/></clipPath><clipPath id="003326e66a"><path d="M 26 82 L 53 82 L 53 109 L 26 109 Z M 26 82 "/></clipPath><clipPath id="1878325f5e"><path d="M 39.316406 82.492188 L 52.429688 92.894531 L 39.699219 108.941406 L 26.585938 98.542969 Z M 39.316406 82.492188 "/></clipPath><clipPath id="9c88889a60"><path d="M 44 80 L 67 80 L 67 103 L 44 103 Z M 44 80 "/></clipPath><clipPath id="b29b9db55b"><path d="M 52.316406 80.683594 L 66.644531 89.332031 L 58.773438 102.375 L 44.445312 93.726562 Z M 52.316406 80.683594 "/></clipPath></defs><g id="f95566d64e"><rect x="0" width="450" y="0" height="179.999997" style="fill:#ffffff;fill-opacity:1;stroke:none;"/><rect x="0" width="450" y="0" height="179.999997" style="fill:#188ead;fill-opacity:1;stroke:none;"/><g style="fill:#ffffff;fill-opacity:1;"><g transform="translate(17.709222, 95.034288)"><path style="stroke:none" d="M 9.65625 -35.265625 C 9.65625 -33.398438 10.097656 -31.789062 10.984375 -30.4375 C 11.867188 -29.082031 12.953125 -27.953125 14.234375 -27.046875 C 15.523438 -26.140625 17.3125 -25.007812 19.59375 -23.65625 C 22.019531 -22.207031 23.894531 -21.003906 25.21875 -20.046875 C 26.550781 -19.085938 27.695312 -17.863281 28.65625 -16.375 C 29.613281 -14.882812 30.09375 -13.085938 30.09375 -10.984375 C 30.09375 -8.796875 29.554688 -6.800781 28.484375 -5 C 27.410156 -3.207031 25.8125 -1.785156 23.6875 -0.734375 C 21.5625 0.316406 18.960938 0.84375 15.890625 0.84375 C 14.253906 0.84375 12.703125 0.664062 11.234375 0.3125 C 9.765625 -0.03125 8.144531 -0.648438 6.375 -1.546875 C 6.132812 -1.679688 5.976562 -1.84375 5.90625 -2.03125 C 5.84375 -2.21875 5.785156 -2.5 5.734375 -2.875 L 4.6875 -11.96875 L 4.6875 -12.03125 C 4.6875 -12.21875 4.800781 -12.320312 5.03125 -12.34375 C 5.269531 -12.375 5.410156 -12.296875 5.453125 -12.109375 C 5.921875 -8.890625 7.15625 -6.085938 9.15625 -3.703125 C 11.164062 -1.328125 13.921875 -0.140625 17.421875 -0.140625 C 19.898438 -0.140625 21.988281 -0.816406 23.6875 -2.171875 C 25.394531 -3.523438 26.25 -5.644531 26.25 -8.53125 C 26.25 -10.632812 25.78125 -12.441406 24.84375 -13.953125 C 23.90625 -15.472656 22.769531 -16.734375 21.4375 -17.734375 C 20.113281 -18.742188 18.3125 -19.925781 16.03125 -21.28125 C 13.789062 -22.582031 12.023438 -23.722656 10.734375 -24.703125 C 9.453125 -25.679688 8.359375 -26.90625 7.453125 -28.375 C 6.546875 -29.84375 6.09375 -31.601562 6.09375 -33.65625 C 6.09375 -35.988281 6.6875 -37.972656 7.875 -39.609375 C 9.0625 -41.242188 10.609375 -42.46875 12.515625 -43.28125 C 14.429688 -44.101562 16.488281 -44.515625 18.6875 -44.515625 C 21.25 -44.515625 23.910156 -43.953125 26.671875 -42.828125 C 27.367188 -42.546875 27.71875 -42.148438 27.71875 -41.640625 L 28.34375 -34.21875 C 28.34375 -34.03125 28.210938 -33.9375 27.953125 -33.9375 C 27.703125 -33.9375 27.550781 -34.03125 27.5 -34.21875 C 27.3125 -36.644531 26.398438 -38.8125 24.765625 -40.71875 C 23.140625 -42.632812 20.8125 -43.59375 17.78125 -43.59375 C 14.976562 -43.59375 12.921875 -42.773438 11.609375 -41.140625 C 10.304688 -39.515625 9.65625 -37.554688 9.65625 -35.265625 Z M 9.65625 -35.265625 "/></g></g><g style="fill:#ffffff;fill-opacity:1;"><g transform="translate(36.304501, 129.209654)"><path style="stroke:none" d="M 40.03125 -36.390625 C 40.03125 -38.628906 39.550781 -40.273438 38.59375 -41.328125 C 37.632812 -42.378906 36.128906 -42.90625 34.078125 -42.90625 C 33.941406 -42.90625 33.875 -43.039062 33.875 -43.3125 C 33.875 -43.59375 33.941406 -43.734375 34.078125 -43.734375 L 37.015625 -43.671875 C 38.609375 -43.578125 39.894531 -43.53125 40.875 -43.53125 C 41.707031 -43.53125 42.828125 -43.578125 44.234375 -43.671875 L 47.09375 -43.734375 C 47.1875 -43.734375 47.234375 -43.59375 47.234375 -43.3125 C 47.234375 -43.039062 47.1875 -42.90625 47.09375 -42.90625 C 45.1875 -42.90625 43.789062 -42.378906 42.90625 -41.328125 C 42.019531 -40.273438 41.578125 -38.628906 41.578125 -36.390625 L 41.578125 -16.375 C 41.578125 -10.914062 40.101562 -6.671875 37.15625 -3.640625 C 34.21875 -0.609375 30.253906 0.90625 25.265625 0.90625 C 21.804688 0.90625 18.796875 0.21875 16.234375 -1.15625 C 13.671875 -2.53125 11.6875 -4.476562 10.28125 -7 C 8.882812 -9.519531 8.1875 -12.4375 8.1875 -15.75 L 8.1875 -38.078125 C 8.1875 -39.472656 8.035156 -40.492188 7.734375 -41.140625 C 7.429688 -41.796875 6.847656 -42.253906 5.984375 -42.515625 C 5.117188 -42.773438 3.773438 -42.90625 1.953125 -42.90625 C 1.859375 -42.90625 1.8125 -43.039062 1.8125 -43.3125 C 1.8125 -43.59375 1.859375 -43.734375 1.953125 -43.734375 L 5.3125 -43.671875 C 7.28125 -43.578125 8.84375 -43.53125 10 -43.53125 C 11.257812 -43.53125 12.875 -43.578125 14.84375 -43.671875 L 18.0625 -43.734375 C 18.195312 -43.734375 18.265625 -43.59375 18.265625 -43.3125 C 18.265625 -43.039062 18.195312 -42.90625 18.0625 -42.90625 C 16.238281 -42.90625 14.90625 -42.765625 14.0625 -42.484375 C 13.226562 -42.203125 12.65625 -41.722656 12.34375 -41.046875 C 12.039062 -40.367188 11.890625 -39.332031 11.890625 -37.9375 L 11.890625 -18.203125 C 11.890625 -12.734375 13.171875 -8.519531 15.734375 -5.5625 C 18.304688 -2.601562 21.90625 -1.125 26.53125 -1.125 C 30.769531 -1.125 34.078125 -2.460938 36.453125 -5.140625 C 38.835938 -7.828125 40.03125 -11.550781 40.03125 -16.3125 Z M 40.03125 -36.390625 "/></g></g><g clip-rule="nonzero" clip-path="url(#63b7de6fe3)"><g clip-rule="nonzero" clip-path="url(#aac0fe5a0b)"><path style=" stroke:none;fill-rule:nonzero;fill:#188ead;fill-opacity:1;" d="M 50.351562 72.855469 L 60.871094 79.199219 L 37.09375 118.597656 L 26.578125 112.25 Z M 50.351562 72.855469 "/></g></g><g clip-rule="nonzero" clip-path="url(#003326e66a)"><g clip-rule="nonzero" clip-path="url(#1878325f5e)"><path style=" stroke:none;fill-rule:nonzero;fill:#188ead;fill-opacity:1;" d="M 39.316406 82.492188 L 52.429688 92.894531 L 39.710938 108.925781 L 26.601562 98.523438 Z M 39.316406 82.492188 "/></g></g><g clip-rule="nonzero" clip-path="url(#9c88889a60)"><g clip-rule="nonzero" clip-path="url(#b29b9db55b)"><path style=" stroke:none;fill-rule:nonzero;fill:#188ead;fill-opacity:1;" d="M 52.316406 80.683594 L 66.632812 89.324219 L 58.761719 102.367188 L 44.445312 93.726562 Z M 52.316406 80.683594 "/></g></g><path style="fill:none;stroke-width:5;stroke-linecap:butt;stroke-linejoin:miter;stroke:#ffffff;stroke-opacity:1;stroke-miterlimit:4;" d="M 0.00315528 2.499707 L 180.303237 2.499938 " transform="matrix(0.239336,-0.290423,0.290423,0.239336,27.351397,116.094053)"/><g style="fill:#ffffff;fill-opacity:1;"><g transform="translate(116.06736, 112.499993)"><path style="stroke:none" d="M 31.015625 -32.171875 C 30.691406 -35.359375 29.570312 -37.96875 27.65625 -40 C 25.445312 -42.40625 22.445312 -43.609375 18.65625 -43.609375 C 15.632812 -43.609375 13.226562 -42.632812 11.4375 -40.6875 C 10.007812 -39.132812 9.296875 -37.253906 9.296875 -35.046875 C 9.296875 -31.335938 12.03125 -28.503906 17.5 -26.546875 L 19.03125 -26 C 25.632812 -23.59375 29.894531 -21.304688 31.8125 -19.140625 C 33.601562 -17.109375 34.5 -14.6875 34.5 -11.875 C 34.5 -7.582031 32.765625 -4.296875 29.296875 -2.015625 C 26.773438 -0.347656 23.78125 0.484375 20.3125 0.484375 C 16.476562 0.484375 12.929688 -0.550781 9.671875 -2.625 C 8.734375 -3.238281 8 -3.546875 7.46875 -3.546875 C 6.6875 -3.546875 6.296875 -2.609375 6.296875 -0.734375 L 4.40625 -0.734375 L 4.40625 -15.359375 L 6.171875 -15.359375 C 6.617188 -11.523438 7.863281 -8.484375 9.90625 -6.234375 C 12.5625 -3.421875 16.03125 -2.015625 20.3125 -2.015625 C 23.125 -2.015625 25.363281 -2.789062 27.03125 -4.34375 C 28.832031 -5.9375 29.734375 -8.117188 29.734375 -10.890625 C 29.734375 -12.972656 28.976562 -14.828125 27.46875 -16.453125 C 26.125 -17.921875 23.269531 -19.53125 18.90625 -21.28125 L 17.734375 -21.78125 C 13.171875 -23.570312 10.175781 -25 8.75 -26.0625 C 6.132812 -28.0625 4.828125 -30.710938 4.828125 -34.015625 C 4.828125 -37.722656 6.195312 -40.675781 8.9375 -42.875 C 11.457031 -44.875 14.632812 -45.875 18.46875 -45.875 C 21.8125 -45.875 25.132812 -44.976562 28.4375 -43.1875 C 29.132812 -42.78125 29.644531 -42.578125 29.96875 -42.578125 C 30.539062 -42.578125 30.867188 -43.410156 30.953125 -45.078125 L 32.90625 -45.078125 L 32.90625 -32.171875 Z M 31.015625 -32.171875 "/></g></g><g style="fill:#ffffff;fill-opacity:1;"><g transform="translate(160.305592, 112.499993)"><path style="stroke:none" d="M 38.78125 -33.21875 L 36.890625 -33.21875 C 36.679688 -35.332031 36.191406 -37.226562 35.421875 -38.90625 C 34.234375 -41.4375 31.335938 -42.703125 26.734375 -42.703125 L 21.59375 -42.703125 L 21.59375 -7.28125 C 21.59375 -5.238281 22.164062 -3.890625 23.3125 -3.234375 C 24.164062 -2.785156 25.816406 -2.503906 28.265625 -2.390625 L 28.265625 -0.609375 L 10.640625 -0.609375 L 10.640625 -2.390625 C 13.046875 -2.503906 14.675781 -2.75 15.53125 -3.125 C 16.71875 -3.613281 17.3125 -5 17.3125 -7.28125 L 17.3125 -42.703125 L 12.59375 -42.703125 C 8.195312 -42.703125 5.34375 -41.539062 4.03125 -39.21875 C 3.132812 -37.75 2.523438 -35.75 2.203125 -33.21875 L 0.421875 -33.21875 L 1.34375 -44.78125 L 38.171875 -44.78125 Z M 38.78125 -33.21875 "/></g></g><g style="fill:#ffffff;fill-opacity:1;"><g transform="translate(205.155512, 112.499993)"><path style="stroke:none" d="M 45.875 -0.609375 L 29.484375 -0.609375 L 29.484375 -2.390625 C 33.148438 -2.390625 34.984375 -3.125 34.984375 -4.59375 C 34.984375 -5.613281 34.757812 -6.609375 34.3125 -7.578125 L 30.828125 -16.09375 L 13.15625 -16.09375 L 9.78125 -7.28125 C 9.332031 -6.019531 9.109375 -5.101562 9.109375 -4.53125 C 9.109375 -3.101562 10.925781 -2.390625 14.5625 -2.390625 L 14.5625 -0.609375 L -0.1875 -0.609375 L -0.1875 -2.390625 L 0.1875 -2.390625 C 3.238281 -2.390625 5.421875 -4.039062 6.734375 -7.34375 L 21.953125 -45.515625 L 23.609375 -45.515625 L 39.15625 -6.96875 C 40.332031 -4.03125 42.570312 -2.503906 45.875 -2.390625 Z M 30.03125 -18.46875 L 22.015625 -38.59375 L 14.0625 -18.46875 Z M 30.03125 -18.46875 "/></g></g><g style="fill:#ffffff;fill-opacity:1;"><g transform="translate(256.305804, 112.499993)"><path style="stroke:none" d="M 44.046875 -0.609375 L 35.109375 -0.609375 C 32.421875 -7.421875 29.671875 -12.847656 26.859375 -16.890625 C 24.535156 -20.023438 21.679688 -21.59375 18.296875 -21.59375 L 13.890625 -21.59375 L 13.890625 -7.28125 C 13.890625 -5.195312 14.476562 -3.832031 15.65625 -3.1875 C 16.507812 -2.769531 18.101562 -2.503906 20.4375 -2.390625 L 20.4375 -0.609375 L 3.1875 -0.609375 L 3.1875 -2.390625 C 5.382812 -2.503906 6.867188 -2.75 7.640625 -3.125 C 8.910156 -3.6875 9.546875 -5.070312 9.546875 -7.28125 L 9.546875 -37.984375 C 9.546875 -40.023438 9.15625 -41.3125 8.375 -41.84375 C 7.601562 -42.457031 5.875 -42.863281 3.1875 -43.0625 L 3.1875 -44.78125 L 23 -44.78125 C 27.28125 -44.78125 30.6875 -44.066406 33.21875 -42.640625 C 36.84375 -40.597656 38.65625 -37.640625 38.65625 -33.765625 C 38.65625 -29.523438 36.90625 -26.363281 33.40625 -24.28125 C 31.28125 -23.101562 28.769531 -22.429688 25.875 -22.265625 L 25.875 -22.015625 C 28.320312 -21.160156 30.6875 -18.941406 32.96875 -15.359375 C 33.945312 -13.765625 35.640625 -10.664062 38.046875 -6.0625 C 39.316406 -3.613281 41.316406 -2.390625 44.046875 -2.390625 Z M 13.890625 -23.796875 L 19.515625 -23.796875 C 29.140625 -23.796875 33.953125 -26.976562 33.953125 -33.34375 C 33.953125 -39.664062 29.914062 -42.828125 21.84375 -42.828125 L 19.453125 -42.828125 C 18.347656 -42.828125 17.347656 -42.703125 16.453125 -42.453125 C 14.742188 -42.046875 13.890625 -40.578125 13.890625 -38.046875 Z M 13.890625 -23.796875 "/></g></g><g style="fill:#ffffff;fill-opacity:1;"><g transform="translate(305.621036, 112.499993)"><path style="stroke:none" d=""/></g></g><g style="fill:#ffffff;fill-opacity:1;"><g transform="translate(329.551271, 112.499993)"><path style="stroke:none" d="M 48.8125 -43.0625 C 46.894531 -42.9375 45.46875 -42.671875 44.53125 -42.265625 C 43.226562 -41.734375 42.578125 -40.328125 42.578125 -38.046875 L 42.578125 -18.359375 C 42.578125 -5.546875 36.890625 0.859375 25.515625 0.859375 C 13.765625 0.859375 7.890625 -5.421875 7.890625 -17.984375 L 7.890625 -37.984375 C 7.890625 -40.109375 7.300781 -41.476562 6.125 -42.09375 C 5.144531 -42.539062 3.53125 -42.863281 1.28125 -43.0625 L 1.28125 -44.78125 L 18.78125 -44.78125 L 18.78125 -43.0625 C 16.539062 -42.9375 14.890625 -42.59375 13.828125 -42.03125 C 12.804688 -41.5 12.296875 -40.148438 12.296875 -37.984375 L 12.296875 -18.59375 C 12.296875 -7.75 16.84375 -2.328125 25.9375 -2.328125 C 34.988281 -2.328125 39.515625 -7.75 39.515625 -18.59375 L 39.515625 -38.046875 C 39.515625 -40.210938 38.960938 -41.578125 37.859375 -42.140625 C 37.003906 -42.628906 35.476562 -42.9375 33.28125 -43.0625 L 33.28125 -44.78125 L 48.8125 -44.78125 Z M 48.8125 -43.0625 "/></g></g><g style="fill:#ffffff;fill-opacity:1;"><g transform="translate(384.922201, 112.499993)"><path style="stroke:none" d="M 3.1875 -44.78125 L 22.75 -44.78125 C 29.238281 -44.78125 33.847656 -43.269531 36.578125 -40.25 C 38.367188 -38.25 39.265625 -35.820312 39.265625 -32.96875 C 39.265625 -24.445312 33.4375 -20.1875 21.78125 -20.1875 L 13.890625 -20.1875 L 13.890625 -7.28125 C 13.890625 -5.195312 14.457031 -3.847656 15.59375 -3.234375 C 16.457031 -2.785156 18.109375 -2.503906 20.546875 -2.390625 L 20.546875 -0.609375 L 3.1875 -0.609375 L 3.1875 -2.390625 C 5.382812 -2.503906 6.867188 -2.75 7.640625 -3.125 C 8.910156 -3.6875 9.546875 -5.070312 9.546875 -7.28125 L 9.546875 -37.984375 C 9.546875 -40.023438 9.15625 -41.3125 8.375 -41.84375 C 7.601562 -42.457031 5.875 -42.863281 3.1875 -43.0625 Z M 13.890625 -22.578125 L 19.9375 -22.578125 C 29.5625 -22.578125 34.375 -25.921875 34.375 -32.609375 C 34.375 -39.335938 30.050781 -42.703125 21.40625 -42.703125 L 19.453125 -42.703125 C 18.347656 -42.703125 17.347656 -42.597656 16.453125 -42.390625 C 14.742188 -41.941406 13.890625 -40.472656 13.890625 -37.984375 Z M 13.890625 -22.578125 "/></g></g></g></svg>